# xmcd
#
# Track frame offsets: 
#        182
#        15815
#        39937
#        61655
#        83105
#        99170
#        118770
#        143500
#        167647
#        183127
#
# Disc length: 2587 seconds
#
# Revision: 0
# Processed by: cddbd v1.5.2PL0 Copyright (c) Steve Scherf et al.
# Submitted via: ExactAudioCopy v1.0b3
#
DISCID=630a190a
DTITLE=Augusto Martelli - Blue Genoa Sound
DYEAR=1900
DGENRE=Pop
TTITLE0=Lucia de Masi - A. Martelli - Mignon
TTITLE1=Augusto MLucia de Masi - A. Martellirtelli - Jeroboam
TTITLE2=Lucia de Masi - A. Martelli - Marinero
TTITLE3=Lucia de Masi - A. Martelli - Magic Sound
TTITLE4=Balthazar
TTITLE5=Lucia de Masi - A. Martelli - Skipper
TTITLE6=Lucia de Masi - A. Martelli - La Bouteille
TTITLE7=Nabucodonosor
TTITLE8=Salmanazar
TTITLE9=Lucia de Masi - A. Martelli - Blue Ballad
EXTD=
EXTT0=
EXTT1=
EXTT2=
EXTT3=
EXTT4=
EXTT5=
EXTT6=
EXTT7=
EXTT8=
EXTT9=
PLAYORDER=
